<?xml version="1.0" encoding="UTF-8"?>
<svg version="1.1" viewBox="0 0 90 90" xmlns="http://www.w3.org/2000/svg" width="90" height="90">
 <rect height="90" width="90" stroke-width="0" fill-opacity="0" fill="red"></rect>
 <g stroke-width="0.7" stroke="#333" fill="#CCC">
  <path d="M46.6 40.9C31.56 28.75 11.53 20.46 5.96 27.68.06 35.35 11.9 46.1 26.5 44.4c8.1-.94 7.27-1.07 15.78 3.48" />
  <path d="M42.33 48C57.37 60.14 77.4 68.43 82.96 61.2c5.9-7.66-5.94-18.43-20.53-16.73-8.1.94-7.27 1.07-15.78-3.48" />
  <path d="M40.92 42.3C28.77 57.36 20.48 77.38 27.7 82.95c7.66 5.9 18.43-5.94 16.73-20.53-.94-8.1-1.07-7.27 3.48-15.78" />
  <path d="M48 46.6C60.16 31.54 68.45 11.5 61.23 5.95 53.56.04 42.8 11.9 44.5 26.48c.94 8.1 1.07 7.27-3.48 15.78" />
 </g>
 <g stroke="#333" stroke-width="0.7">
  <circle cx="45" cy="45" r="6" fill="gray"/>
  <circle cx="45" cy="45" r="3" fill="white"/>
  <circle cx="45" cy="45" r="0.5" fill="red" stroke="red"/>
 </g>
</svg>
